<?xml version="1.0" encoding="utf-8"?>
<!-- Generator: Adobe Illustrator 22.0.0, SVG Export Plug-In . SVG Version: 6.00 Build 0)  -->
<svg version="1.1" id="Layer_1" xmlns="http://www.w3.org/2000/svg" xmlns:xlink="http://www.w3.org/1999/xlink" x="0px" y="0px"
	 viewBox="0 0 2209 2197" style="enable-background:new 0 0 2209 2197;" xml:space="preserve">
<style type="text/css">
	.st0{fill:#C682A7;}
	.st1{fill:#E7CADA;}
</style>
<g>
	<g>
		<path class="st0" d="M1610.3,300.7c-11.2-1.2-22.4-1.1-33.6-1c-11.6,0-23.1,1-34.6,1.9c-9.9,0.8-19.7,2.2-29.5,3.8
			c-12.5,2-24.9,4.6-37.1,7.9c-22.1,5.9-43.4,13.8-64.2,23.2c-23.5,10.6-45.8,23.4-67,38.1c-13.5,9.3-26.4,19.2-38.7,30.1
			c-13.9,12.3-27.1,25.4-39.6,39.1c-14.6,15.8-27.9,32.7-40.4,50.2c-12.5,17.5-23.5,36-33.7,54.9c-12.4,23-23.3,46.7-32.2,71.3
			c-7.4,20.6-13.7,41.5-18.7,62.8c-1.4,6.1-2.6,12.2-4.1,18.3c-1.4,5.7-3.1,11.4-6.1,16.5c-2.5,4.2-5.7,7.7-10.3,9.6
			c-5.5,2.3-10.4,1.2-14.8-2.7c-2.9-2.6-5.1-5.8-6.8-9.3c-1.7-3.5-3.2-7-4.6-10.6c-9-23-19.4-45.2-31.3-66.9
			c-8.6-15.8-17.8-31.3-28-46.2c-11.1-16-22.8-31.5-35.4-46.4c-12.2-14.5-25-28.4-38.7-41.5c-17.5-16.9-36.1-32.3-56-46.4
			c-23.2-16.4-47.5-30.7-73.2-42.8c-25.8-12.2-52.5-21.9-80.4-28.5c-13.2-3.1-26.6-5.5-40.1-7.3c-12.6-1.6-25.2-2.6-37.8-3.5
			c-11.2-0.7-22.4-1-33.6-0.4c-8.2,0.4-16.5,0.6-24.7,1.5c-8.2,0.8-16.4,1.6-24.6,2.7c-9.3,1.3-18.5,3-27.6,4.9
			c-24,4.8-47.2,12.4-69.8,21.8c-28.8,12-55.8,27.2-81.3,45.2c-21.6,15.3-40.7,33.2-58.6,52.6c-13.2,14.3-24.9,29.9-36.3,45.8
			c-11,15.5-20.4,31.9-28.5,49c-4.5,9.6-9.2,19.2-13.5,29c-2.5,5.9-4.3,12.1-6.4,18.2c-4.9,14.4-9.5,29-12.7,43.9
			c-2,9.3-4.2,18.6-5.3,28.1c-0.9,7.3-2.1,14.5-2.9,21.8c-0.6,6.2-1,12.5-1.2,18.7c-0.2,7.7-0.3,15.5,0,23.2
			c0.3,7.7,0.9,15.4,1.7,23c1.1,11,2.9,21.8,4.9,32.6c1.5,8.1,3.6,16.1,5.8,24.1c5.6,20.6,12.7,40.6,21.5,60.1
			c10.7,23.6,23.2,46.4,37.3,68.1c8.4,12.9,17.6,25.3,27.2,37.5c10.1,12.9,20.7,25.3,31.7,37.5c15.3,17,31.5,33,48.1,48.6
			c14.3,13.5,29.2,26.3,44.5,38.7c22.2,17.9,45.1,34.8,68.5,51c26.1,18.1,53,35.1,80.2,51.6c19.3,11.7,38.7,23.3,58.1,34.9
			c24,14.3,48.1,28.5,72,42.9c15.9,9.6,31.7,19.4,47.4,29.2c19.5,12.1,38.7,24.8,57.7,37.7c24,16.4,47.4,33.5,70.1,51.6
			c15.4,12.3,30.4,24.9,45,38.2c5.6,5.1,10.9,10.4,16.5,15.5c9.4,8.6,18,17.8,26.8,27c13.6,14.2,26.4,29.2,38.5,44.7
			c2,2.6,4.1,5.2,6.1,7.8c7.7,9.9,11.2,21.2,12.5,33.6c0.6,6.3,0.3,12.5-0.3,18.7c-1,10.3-3.3,20.3-9.9,28.8c-2.3,2.9-4.8,5.6-8,7.5
			c-5.5,3.3-10.5,3-15.1-1.5c-2.6-2.6-4.8-5.5-7.1-8.4c-11-14.3-22.7-28-34.8-41.3c-13.1-14.5-26.9-28.2-41.1-41.6
			c-12.2-11.4-24.8-22.4-37.8-32.9c-21.4-17.4-43.5-33.9-66.2-49.6c-28.4-19.7-57.5-38.4-86.9-56.4c-24.8-15.2-49.8-29.9-74.7-44.8
			c-28.1-16.8-56.3-33.3-84.3-50.2c-16.3-9.9-32.4-20.3-48.5-30.6c-27.1-17.4-53.3-36-78.8-55.6c-13-10-25.6-20.3-38.2-30.8
			c-23.7-19.9-46-41.2-67.6-63.3c-12.6-12.9-24.4-26.4-36-40.3c-17-20.3-32.7-41.6-47.1-63.9c-9.8-15.1-18.8-30.7-27.3-46.6
			c-9.6-18-18-36.6-25.5-55.6c-8.9-22.4-16-45.3-21.6-68.8c-3.5-14.8-6.2-29.8-8.5-44.9c-1.2-7.6-1.7-15.3-2.6-23
			c-2.9-24-2.3-48.1-2.2-72.1c1-0.7,1-1.4,0.1-2.2c0.4-9.2,1.2-18.3,2-27.5c0.6-8.1,1.6-16.1,2.7-24.1c1.5-11.5,3.5-22.8,5.8-34.2
			c5.1-25.1,11.9-49.6,20.5-73.7c5.8-16.3,12.3-32.3,19.7-47.9c11.9-25.1,25.6-49.2,41.5-72c9.6-13.7,19.7-27,30.7-39.6
			c8.9-10.3,18.1-20.3,28-29.7c10.6-10,21.5-19.5,33-28.4c16-12.4,32.7-23.7,50.3-33.8c14.2-8.1,28.8-15.4,43.9-21.9
			c11.7-5,23.5-9.6,35.5-13.5c19.9-6.5,40.2-11.8,60.9-15.1c8.5-1.4,17-2.8,25.6-4c5.5-0.7,11-1,16.5-1.5c20.5-2,41.1-1.3,61.7-0.9
			c7.3,0.2,14.6,1.3,21.9,1.8c6.2,0.5,12.4,1.5,18.6,2.3c12.9,1.7,25.7,4.3,38.4,7.2c25.5,5.9,50.2,14,74.3,24.2
			c17.4,7.4,34.3,15.9,50.7,25.4c18.7,10.8,36.5,22.7,53.6,35.9c10.9,8.4,21.5,17.2,31.8,26.4c11.4,10.2,22.2,21,32.8,32
			c11.9,12.3,22.9,25.4,33.6,38.7c13.5,16.8,26,34.3,37.6,52.4c8.4,13,16.4,26.2,23.7,39.8c4.5,8.4,8.9,16.9,13.3,25.4
			c0.7,1.2,0.8,2.9,2.7,3.4c0.8-2.2,1.6-4.5,2.3-6.7c7.8-23.6,16.6-46.7,26.9-69.3c15.7-34.8,34.1-68,55.9-99.3
			c10-14.3,20.5-28.2,31.7-41.6c12.4-14.8,25.4-29,39.4-42.4c13.3-12.7,27.2-24.7,41.8-35.9c13.6-10.4,27.6-20.2,42.2-29.1
			c18.2-11.2,37.1-21,56.6-29.6c12.6-5.6,25.5-10.5,38.5-14.9c19.4-6.5,39.1-11.5,59.2-15.2c8.7-1.6,17.4-2.9,26.1-3.9
			c9.5-1,19-1.6,28.5-2.4c10.8-0.8,21.7-0.7,32.5-0.6c9.4,0.1,18.7,0.9,28,1.8c7.1,0.7,14.2,1.4,21.3,2.4
			c12.9,1.7,25.7,4.2,38.4,7.2c22,5.2,43.5,12.1,64.4,20.9c17.5,7.3,34.3,15.9,50.6,25.8c15.4,9.3,30.2,19.7,44.1,31.1
			c7.5,6.2,15,12.4,22,19.2c3.4,3.3,7.1,6.4,10.4,9.8c17.5,17.9,33.7,36.9,48.3,57.3c18.8,26.3,34.6,54.2,48.1,83.5
			c14.1,30.4,25.2,61.9,32.8,94.6c3,12.7,5.4,25.5,7.4,38.4c1.6,10.2,2.9,20.4,3.8,30.6c0.8,8,1.6,16.1,1.6,24.2
			c0,6.8-0.1,13.6,0.7,20.4c0.3,2.9-0.1,5.9-0.3,8.8c0,1.1-0.2,2.2-0.2,3.3c-0.2,11.9-0.2,23.9-1.5,35.8c-0.6,5.1-1.2,10.2-1.7,15.3
			c-0.6,6.4-1.5,12.8-2.5,19.1c-1.6,10.3-3.4,20.6-5.6,30.9c-4.6,21.2-10.3,42.1-17.5,62.6c-5.9,17-12.5,33.7-20,50.2
			c-13.2,29-28.4,56.9-45.5,83.7c-16.2,25.3-33.9,49.4-52.8,72.6c-8.8,10.8-17.9,21.4-27.3,31.8c-16.1,17.9-32.9,35.2-50.2,51.9
			c-11.6,11.2-23.5,22.2-35.4,33.2c-9.6,8.8-19.4,17.5-29.2,26c-11.8,10.3-23.7,20.4-35.6,30.5c-10.9,9.3-21.8,18.6-32.7,27.9
			c-11.1,9.4-22.2,18.7-33.2,28.1c-9.2,7.9-18.4,15.9-27.5,23.8c-11.2,9.8-22.4,19.6-33.6,29.5c-7.3,6.4-14.6,12.9-21.8,19.4
			c-9.7,8.7-19.5,17.4-29.2,26.1c-4,3.6-7.9,7.1-11.9,10.7c-11.5,10.6-22.9,21.2-34.5,31.8c-12.5,11.4-24.7,23.1-37,34.7
			c-25.9,24.5-51.1,49.8-75.9,75.4c-9.6,9.9-18.9,20-28.1,30.3c-13.1,14.7-26,29.5-38.6,44.6c-22.9,27.6-44.6,56.1-65,85.6
			c-14.9,21.7-28.7,44-41.7,66.9c-11.3,19.8-21.9,40-31.7,60.6c-8.1,16.9-15.6,34.1-22.8,51.4c-3,7.3-5.3,14.9-8.3,22.2
			c-8,19.4-14.3,39.4-20.3,59.4c-1.8,6-3.7,11.9-7.2,17.2c-2.3,3.6-5.1,6.8-8.9,8.9c-4.6,2.5-9.1,2.5-13.6-0.3
			c-3.7-2.3-6.6-5.2-8.7-9c-3.3-6.1-5.2-12.5-6.5-19.2c-1.8-8.9-1.6-17.9-1-26.9c0.4-6.1,2-11.9,3.8-17.7c10-32.9,21.6-65.2,34.7-97
			c8.1-19.5,16.8-38.8,25.9-57.8c6.6-14,13.8-27.6,21-41.3c11.3-21.1,23.4-41.7,36-62c20.2-32.5,42.4-63.6,65.8-93.9
			c10.2-13.2,20.8-26.2,31.7-38.9c10.9-12.7,21.9-25.3,33.1-37.7c10.5-11.6,21.3-22.9,32-34.2c13.7-14.4,27.7-28.4,41.9-42.4
			c9.9-9.8,20-19.5,30.2-29.1c12.3-11.6,24.6-23.2,37-34.8c13.5-12.5,27-24.9,40.6-37.3c10.6-9.6,21.3-19.2,32-28.7
			c12.5-11.1,25-22.2,37.6-33.2c14.8-12.9,29.8-25.7,44.7-38.5c16-13.8,32.1-27.5,48.2-41.2c13.7-11.7,27.5-23.2,41.2-35
			c10.8-9.4,21.5-19,32.2-28.5c23.4-20.5,45.7-42.1,67.6-64.2c10.1-10.2,20.1-20.5,29.6-31.2c27-30.2,52.1-61.8,74-95.9
			c7.9-12.4,15.2-25.2,22.2-38.1c9.4-17.3,17.8-35.1,25.3-53.3c5.1-12.4,9.3-25.2,13.2-38c2.6-8.6,5.2-17.2,6.9-26.1
			c1.2-5.7,2-11.6,3-17.3c1.4-8.3,2.9-16.6,4.1-25c0.8-5.4,1.3-11,1.4-16.5c0.2-10.7,0.2-21.3-0.1-32c-0.2-6-1-12.1-1.7-18.1
			c-0.7-6-1.6-12-2.4-18c-1.5-11.7-4.1-23.1-7.2-34.5c-4.2-15.2-8.8-30.3-14.9-45c-5.9-14.1-12.2-27.9-19.6-41.3
			c-5-9-10-18-15.5-26.7c-6-9.5-12.6-18.6-19.4-27.4c-13.7-17.8-28.9-34.3-45.1-49.8c-10.7-10.2-22.2-19.3-34.1-27.9
			c-20.2-14.6-41.8-26.7-64.4-37.1c-21.8-10-44.4-17.7-67.7-23.2c-12-2.8-24.1-4.9-36.3-6.7c-5.1-0.7-10.2-1.1-15.3-1.5
			c-3.1-0.2-6.1-1.2-9.3-0.9C1611.9,299.8,1611.1,299.7,1610.3,300.7z"/>
		<path class="st1" d="M1610.3,300.7c0.8-0.9,1.5-0.9,2.2,0.1C1611.8,301.8,1611,301.7,1610.3,300.7z"/>
		<path class="st1" d="M199,747.6c0.9,0.8,0.9,1.5-0.1,2.2C198,749,198,748.3,199,747.6z"/>
	</g>
</g>
</svg>
