<?xml version="1.0" encoding="utf-8"?>
<!-- Generator: Adobe Illustrator 22.0.0, SVG Export Plug-In . SVG Version: 6.00 Build 0)  -->
<svg version="1.1" id="Layer_1" xmlns="http://www.w3.org/2000/svg" xmlns:xlink="http://www.w3.org/1999/xlink" x="0px" y="0px"
	 viewBox="0 0 436.8 436.9" style="enable-background:new 0 0 436.8 436.9;" xml:space="preserve">
<style type="text/css">
	.st0{fill:#E7ABD2;}
</style>
<g>
	<g>
		<path class="st0" d="M384,436.4c-110.6,0-221.2,0-331.8,0c-0.4-0.5-0.9-0.4-1.4-0.4c-6.1-1-11.5-3.6-15.6-8.2
			c-5.6-6.2-7.8-13.9-7.8-22.2c0-52.4,0-104.9,0-157.3c0-4.4-0.1-8.9,0-13.3c0-1.8-0.6-2.2-2.2-2.2c-4.1,0.1-8.1,0.1-12.2,0
			c-3,0-5.6-1.1-7.8-3.2c-2-1.9-3.1-4.4-4.8-6.4c0-27.6,0-55.2,0-82.8c1.9-4,3.2-8.2,5.5-12c2.7-4.4,6.1-7.8,11-9.7
			c4.5-1.7,9.3-2.3,14-2.3c26-0.1,52-0.1,78-0.1c0.6,0,1.2,0,1.7,0c0.3,0,0.8,0.1,0.9-0.3c0.2-0.4-0.2-0.6-0.5-0.9
			c-0.9-0.7-1.8-1.5-2.7-2.2c-5.4-4.1-10.2-8.8-14.3-14.2C84.2,85.5,80.4,70.5,82.4,54.1c1.1-9.4,3.5-18.5,8.5-26.7
			C94.1,22,98,17.1,103,13.1c7.3-5.7,15.6-9.3,24.7-11.2c7.6-1.6,15.1-2,22.8-0.3c11.4,2.5,20.7,8.5,28.5,17.2
			c7.2,8,13.2,16.9,18.3,26.3c6.8,12.7,12.5,25.8,16.7,39.6c2.7,8.8,4,17.9,4,27.1c0,1.1-0.8,2.3,0.4,3.4c0.8-2.9,0.7-5.8,0.8-8.6
			c0.1-3,0.1-6,0.7-8.9c2.6-14.3,7.3-28,13.6-41.1c5.4-11.2,11.9-21.7,19-31.9c3.3-4.7,7.1-9.2,11.7-12.7
			c12.8-9.8,27.4-12.9,43.1-10.6c14.1,2.1,25.5,9.3,34.2,20.7c11.7,15.3,15.2,32.6,11.9,51.3c-2.8,16-11.5,28.5-24.1,38.5
			c-1.6,1.3-3.4,2.5-4.9,4.5c1.3,0,2,0,2.8,0c23.7,0,47.4,0,71.1,0c4.3,0,8.5-0.2,12.8,0.4c9.6,1.2,16.9,5.7,21.4,14.3
			c2.7,5.1,3.8,10.7,3.8,16.3c0.1,21.2,0,42.4,0,63.7c0,3.3,0.1,6.5-0.4,9.8c-1,5.7-3.8,10.1-10.1,11.7c-4.5,1.2-9.1,0.7-13.6,0.8
			c-3.6,0.1-3.3-0.3-3.3,3.3c0,55.8,0,111.6,0,167.4c0,4.6-0.4,9.1-1.8,13.5c-2.2,6.8-6.2,12.1-12.7,15.6
			C391.1,434.8,387.5,435.4,384,436.4z M203.9,320c0-28,0-55.9,0-83.9c0-2.8,0-2.8-2.8-2.8c-47.7,0-95.3,0-143,0
			c-2.8,0-2.8,0-2.8,2.8c0,55.9,0,111.9,0,167.8c0,2.8,0,2.8,2.8,2.8c47.7,0,95.3,0,143,0c2.8,0,2.8,0,2.8-2.8
			C203.9,376,203.9,348,203.9,320z M232.3,320c0,28,0,55.9,0,83.9c0,2.8,0,2.8,2.8,2.8c47.7,0,95.3,0,143,0c2.8,0,2.8,0,2.8-2.8
			c0-55.8,0-111.6,0-167.4c0-2.8,0-2.8-2.8-2.8c-47.7,0-95.3,0-143,0c-2.8,0-2.8,0-2.8,2.8C232.3,264.4,232.3,292.2,232.3,320z
			 M116.3,146.1c-28.5,0-57,0-85.4,0c-2.1,0-2.7,0.6-2.7,2.7c0.1,17.4,0.1,34.9,0,52.3c0,2.1,0.6,2.7,2.7,2.7
			c56.8-0.1,113.6-0.1,170.5,0c2.1,0,2.7-0.5,2.7-2.7c-0.1-17.4,0-34.7,0-52.1c0-2.8,0-2.8-2.8-2.8
			C172.8,146.1,144.6,146.1,116.3,146.1z M320.3,146.5c-28.5,0-57,0-85.4,0c-2.1,0-2.7,0.6-2.7,2.7c0.1,17.1,0.1,34.3,0,51.4
			c0,2.1,0.6,2.7,2.7,2.7c57-0.1,113.9-0.1,170.9,0c2.1,0,2.7-0.6,2.7-2.7c-0.1-17.1,0-34.1,0-51.2c0-2.8,0-2.8-2.8-2.8
			C377.2,146.5,348.8,146.5,320.3,146.5z M298.3,30c-8,0.2-14.5,2.8-19.8,8.1c-6.6,6.6-11.5,14.5-15.8,22.7
			c-6.9,12.9-12,26.5-15,40.8c-0.7,3.5-1.7,7-1.5,10.7c0.1,2.7,1.2,4,4,4.1c1.2,0.1,2.4-0.2,3.7-0.3c15.6-2.3,29.7-8.2,43-16.6
			c6.4-4.1,12.4-8.7,18.2-13.7c3.2-2.8,6.4-5.7,8.3-9.7c5.4-11.1,4.9-22.1-1.6-32.5C316.4,34.9,308.2,30.4,298.3,30z M184.4,116.4
			c5.4,0.1,6.8-2.2,6.3-5.6c-0.6-4.5-1.5-9-2.7-13.4c-3.6-14.2-8.9-27.7-16.4-40.3c-3.8-6.4-7.9-12.7-12.9-18.2
			c-6.1-6.8-13.8-10-23.1-8.9c-11.3,1.4-18.9,7.7-23.4,17.9c-2.4,5.2-3.1,10.7-2.6,16.5c0.7,7.4,3.4,13.7,8.9,18.7
			c2.8,2.6,5.9,4.9,8.9,7.2c13.9,10.3,28.7,19,45.6,23.6C177.2,115,181.1,116.1,184.4,116.4z"/>
	</g>
</g>
</svg>
